<?xml version="1.0" standalone="no"?>
<!DOCTYPE svg PUBLIC "-//W3C//DTD SVG 20010904//EN"
 "http://www.w3.org/TR/2001/REC-SVG-20010904/DTD/svg10.dtd">
<svg version="1.0" xmlns="http://www.w3.org/2000/svg"
 width="950.000000pt" height="1280.000000pt" viewBox="0 0 950.000000 1280.000000"
 preserveAspectRatio="xMidYMid meet">
<g transform="translate(0.000000,1280.000000) scale(0.100000,-0.100000)"
fill="#000000" stroke="none">
<path d="M0 6400 l0 -6400 4750 0 4750 0 0 6400 0 6400 -4750 0 -4750 0 0
-6400z m8798 5698 c17 -17 17 -11379 0 -11396 -17 -17 -8079 -17 -8096 0 -17
17 -17 11379 0 11396 17 17 8079 17 8096 0z"/>
<path d="M7610 11545 c-177 -30 -297 -84 -399 -180 -110 -104 -161 -225 -161
-385 0 -165 51 -281 171 -395 82 -76 104 -88 473 -265 153 -73 225 -135 244
-210 26 -104 -24 -183 -145 -231 -50 -20 -77 -23 -193 -23 -100 -1 -153 4
-205 18 -82 21 -215 81 -279 125 -24 17 -47 31 -50 31 -3 0 -6 -92 -6 -205 l0
-204 28 -15 c132 -68 444 -108 666 -86 153 15 251 40 352 89 189 94 279 232
291 448 16 282 -96 445 -404 594 -68 32 -179 86 -246 118 -129 62 -207 123
-228 178 -14 37 -13 106 1 135 50 97 156 141 335 141 134 0 251 -26 371 -83
l84 -39 -2 196 -3 197 -82 22 c-46 12 -122 27 -170 33 -116 14 -349 12 -443
-4z"/>
<path d="M1180 10540 l0 -990 203 2 202 3 -1 703 c0 386 3 702 7 702 4 0 25
-28 46 -63 21 -35 227 -352 458 -705 l420 -641 223 -1 222 0 0 990 0 990 -206
0 -206 0 4 -685 c1 -377 -1 -685 -5 -685 -4 0 -27 30 -50 67 -23 36 -222 344
-443 682 l-400 616 -237 3 -237 2 0 -990z"/>
<path d="M3190 10540 l0 -990 590 0 590 0 0 170 0 170 -356 0 c-226 0 -362 4
-375 10 -18 10 -19 23 -19 228 0 119 4 223 8 229 6 10 87 13 328 15 l319 3 0
170 0 170 -325 5 -325 5 -3 205 c-1 113 0 215 3 227 l5 23 348 2 347 3 3 123
c3 124 13 152 31 85 5 -21 105 -400 221 -843 116 -443 223 -849 237 -902 l26
-98 253 0 253 0 15 53 c82 289 330 1251 344 1329 10 59 22 103 30 106 7 2 12
-6 12 -20 0 -64 44 -252 194 -833 l163 -630 244 -3 244 -2 258 973 c141 535
257 981 257 990 0 15 -20 17 -215 17 -118 0 -215 -3 -215 -7 0 -5 -63 -312
-139 -683 -77 -371 -145 -713 -151 -760 -11 -83 -25 -119 -34 -89 -2 8 -9 52
-16 99 -6 47 -86 388 -176 757 -90 370 -164 675 -164 678 0 3 -106 5 -235 5
l-234 0 -15 -52 c-112 -390 -361 -1326 -373 -1401 -10 -59 -21 -96 -27 -94 -6
2 -17 48 -23 103 -12 91 -288 1417 -299 1436 -3 4 -365 8 -805 8 l-799 0 0
-990z"/>
<path d="M1120 8551 l0 -339 23 -6 c29 -8 7096 -8 7136 0 l31 7 0 338 0 339
-3595 0 -3595 0 0 -339z"/>
<path d="M1120 7190 l0 -340 3595 0 3595 0 0 340 0 340 -3595 0 -3595 0 0
-340z"/>
<path d="M1120 5875 l0 -345 3593 2 3592 3 3 343 2 342 -3595 0 -3595 0 0
-345z"/>
<path d="M1120 4520 l0 -340 3595 0 3595 0 0 340 0 340 -3595 0 -3595 0 0
-340z"/>
<path d="M1122 3178 l3 -343 3570 -3 c1964 -1 3580 0 3593 3 l22 5 0 340 0
340 -3595 0 -3595 0 2 -342z"/>
<path d="M1120 1820 l0 -340 3595 0 3595 0 0 340 0 340 -3595 0 -3595 0 0
-340z"/>
</g>
</svg>
